Coordinates
version=1
nRows=12
nColumns=46
inDegrees=yes

Units are S.I. units (second, meters, Newtons, ...)
Angles are in degrees.

endheader
time	pelvis_tilt	pelvis_list	pelvis_rotation	pelvis_tx	pelvis_ty	pelvis_tz	bb_angle	bb_tx	bb_ty	bb_tz	hip_flexion_r	hip_adduction_r	hip_rotation_r	knee_angle_r	knee_angle_r_beta	ankle_angle_r	subtalar_angle_r	mtp_angle_r	crank_angle_r	hip_flexion_l	hip_adduction_l	hip_rotation_l	knee_angle_l	knee_angle_l_beta	ankle_angle_l	subtalar_angle_l	mtp_angle_l	crank_angle_l	lumbar_extension	lumbar_bending	lumbar_rotation	arm_flex_r	arm_add_r	arm_rot_r	elbow_flex_r	pro_sup_r	wrist_flex_r	wrist_dev_r	arm_flex_l	arm_add_l	arm_rot_l	elbow_flex_l	pro_sup_l	wrist_flex_l	wrist_dev_l
      5.00000000	     -7.55895225	     -2.02135943	     -0.52254780	      0.09989956	      1.15381335	     -0.25087675	      0.00000000	      0.50000000	      0.00000000	      0.25000000	     86.56390161	     -8.10935465	      2.10909883	    116.46520004	      2.03270120	      6.13234137	     -5.86289135	      0.00000000	      0.00000000	     37.47318169	    -11.85948743	    -14.80691742	     38.10420640	      0.66504386	      0.18743726	     18.34492611	      0.00000000	      0.00000000	    -62.32720733	      5.91380162	      9.48406210	     89.72491645	    -23.81621057	     38.77204427	     54.95012114	     27.98148131	      0.00000000	      0.00000000	     88.95514967	     -9.27590468	     38.93628811	     33.28989473	     22.70795763	      0.00000000	      0.00000000
      5.00500000	     -7.63370611	     -2.13302044	     -0.90279377	      0.09993655	      1.15471478	     -0.25185605	      0.00000000	      0.50000000	      0.00000000	      0.25000000	     87.53878070	     -7.57272758	      2.22477209	    116.23943356	      2.02876084	      5.88578003	     -5.72906725	      0.00000000	      0.00000000	     37.14972896	    -12.24598459	    -15.16124219	     38.58959467	      0.67351548	     -0.29250107	     18.33529357	      0.00000000	      0.00000000	    -62.32041069	      6.22485969	      9.42646106	     89.73244025	    -22.56662026	     38.41262744	     54.57785805	     27.58679954	      0.00000000	      0.00000000	     88.93931115	     -9.80960019	     39.11022548	     32.82171984	     22.93469214	      0.00000000	      0.00000000
      5.01000000	     -7.64544823	     -2.23172771	     -1.27177769	      0.09990810	      1.15581797	     -0.25272796	      0.00000000	      0.50000000	      0.00000000	      0.25000000	     88.33909147	     -7.11759641	      2.26673051	    115.88499719	      2.02257475	      5.75938747	     -5.48253237	      0.00000000	      0.00000000	     36.85062168	    -12.59586938	    -15.39638238	     39.20131838	      0.68419208	     -0.85128819	     17.99265771	      0.00000000	      0.00000000	    -62.46026494	      6.43167236	      9.58748504	     89.73937014	    -22.07823617	     38.39742795	     54.72249004	     27.53278276	      0.00000000	      0.00000000	     88.93535923	    -10.06989316	     39.11346586	     32.64686899	     22.97720507	      0.00000000	      0.00000000
      5.01500000	     -7.80348522	     -2.38743253	     -1.52375643	      0.09969300	      1.15648569	     -0.25351530	      0.00000000	      0.50000000	      0.00000000	      0.25000000	     89.14379605	     -6.64963749	      2.24046380	    115.39981012	      2.01410664	      5.66320180	     -5.39239975	      0.00000000	      0.00000000	     36.95604112	    -12.98374232	    -15.39349829	     40.16086896	      0.70093939	     -1.23965288	     17.73016117	      0.00000000	      0.00000000	    -62.40482441	      6.80244968	      9.55500443	     89.74513498	    -21.05009190	     38.09763922	     54.55808401	     27.19881083	      0.00000000	      0.00000000	     88.93257203	    -10.59501812	     39.27644461	     32.38382313	     23.19619084	      0.00000000	      0.00000000
      5.02000000	     -7.81853887	     -2.37798545	     -1.83998477	      0.09962786	      1.15756226	     -0.25424936	      0.00000000	      0.50000000	      0.00000000	      0.25000000	     89.67683506	     -6.20761947	      2.34921227	    114.76653512	      2.00305391	      5.62939757	     -5.15343313	      0.00000000	      0.00000000	     36.90588240	    -13.26114320	    -15.58419909	     41.16036008	      0.71838380	     -1.77067531	     17.24058101	      0.00000000	      0.00000000	    -62.54912049	      6.93475738	      9.60631805	     89.74992834	    -20.66154768	     38.08545181	     54.70589859	     27.16654564	      0.00000000	      0.00000000	     88.97507343	    -10.79013611	     39.29930981	     32.28694779	     23.22928461	      0.00000000	      0.00000000
      5.02500000	     -7.98121472	     -2.42444059	     -2.17276172	      0.09942507	      1.15829714	     -0.25462786	      0.00000000	      0.50000000	      0.00000000	      0.25000000	     90.20473400	     -5.69934217	      2.34837851	    113.98307815	      1.98938001	      5.78621196	     -4.88881109	      0.00000000	      0.00000000	     37.21006863	    -13.64078321	    -15.61370870	     42.45411844	      0.74096415	     -2.28721784	     16.64418742	      0.00000000	      0.00000000	    -62.54704118	      7.06228063	      9.68615505	     89.75512705	    -20.12646590	     38.00471181	     54.86163443	     27.12010057	      0.00000000	      0.00000000	     89.00443226	    -11.09369622	     39.31833782	     32.17797708	     23.26595100	      0.00000000	      0.00000000
      5.03000000	     -8.42522784	     -2.64540309	     -2.35860714	      0.09888569	      1.15846262	     -0.25514637	      0.00000000	      0.50000000	      0.00000000	      0.25000000	     90.79242571	     -5.29447692	      2.12706548	    112.98510438	      1.97196208	      6.05657941	     -4.70308982	      0.00000000	      0.00000000	     38.08069010	    -14.02912178	    -15.15690596	     43.98552548	      0.76769224	     -2.71177684	     15.72219961	      0.00000000	      0.00000000	    -62.25790283	      7.49493496	      9.71334751	     89.75896637	    -19.15085394	     37.60403445	     54.74951147	     26.87701421	      0.00000000	      0.00000000	     88.97796227	    -11.66970752	     39.50056752	     32.15028020	     23.42769033	      0.00000000	      0.00000000
      5.03500000	     -8.46334707	     -2.57170974	     -2.61612177	      0.09858911	      1.15929854	     -0.25534208	      0.00000000	      0.50000000	      0.00000000	      0.25000000	     90.83308454	     -4.93106919	      2.15158011	    111.92113408	      1.95339229	      6.47953121	     -4.56632208	      0.00000000	      0.00000000	     38.48249278	    -14.31482008	    -15.15478618	     45.56423461	      0.79524592	     -3.34993643	     15.09350342	      0.00000000	      0.00000000	    -62.37278911	      7.51679911	      9.66681338	     89.76525630	    -18.73401267	     37.50431813	     54.81430066	     26.81871643	      0.00000000	      0.00000000	     89.04948415	    -11.89325644	     39.55179368	     32.14110964	     23.47682091	      0.00000000	      0.00000000
      5.04000000	     -8.91270242	     -2.75239262	     -2.79842183	      0.09803858	      1.15932322	     -0.25542892	      0.00000000	      0.50000000	      0.00000000	      0.25000000	     91.04047970	     -4.56261207	      1.88896038	    110.63978881	      1.93102860	      7.11447669	     -4.29607561	      0.00000000	      0.00000000	     39.63648922	    -14.78345818	    -14.69344560	     47.43593844	      0.82791331	     -4.01596118	     14.15533670	      0.00000000	      0.00000000	    -62.08543709	      7.95491972	      9.40487765	     89.76834875	    -16.96154854	     36.65011686	     54.45876207	     24.79472193	      0.00000000	      0.00000000	     89.02938898	    -13.64340731	     41.69329115	     32.53435987	     25.15798782	      0.00000000	      0.00000000
      5.04500000	     -8.96543446	     -2.58968247	     -3.02398147	      0.09759377	      1.16004252	     -0.25540432	      0.00000000	      0.50000000	      0.00000000	      0.25000000	     90.72866006	     -4.25662167	      1.94718647	    109.28928014	      1.90745778	      7.90719111	     -4.16098594	      0.00000000	      0.00000000	     40.27655868	    -15.00446226	    -14.64590882	     49.24411730	      0.85947198	     -4.86050792	     13.44412841	      0.00000000	      0.00000000	    -62.14244622	      7.88386938	      9.28511670	     89.76928685	    -16.71366670	     36.61035345	     54.63079865	     24.78686006	      0.00000000	      0.00000000	     89.14760956	    -13.74555467	     41.62090559	     32.52872154	     25.17766444	      0.00000000	      0.00000000
      5.05000000	     -9.46688897	     -2.78982185	     -3.22973230	      0.09688858	      1.16001658	     -0.25542602	      0.00000000	      0.50000000	      0.00000000	      0.25000000	     90.59096659	     -3.92911046	      1.61316652	    107.65233574	      1.87888771	      8.98225287	     -3.60141222	      0.00000000	      0.00000000	     41.69768189	    -15.50012704	    -14.10085659	     51.33063958	      0.89588867	     -5.76591169	     12.14452506	      0.00000000	      0.00000000	    -61.88673935	      8.18524489	      9.45894749	     89.77454528	    -16.14032091	     36.40144725	     54.83564591	     24.71943437	      0.00000000	      0.00000000	     89.09792997	    -14.19583685	     41.46318529	     32.60453839	     25.25651291	      0.00000000	      0.00000000
      5.05500000	     -9.71207245	     -2.77175334	     -3.44574957	      0.09630536	      1.16031549	     -0.25519417	      0.00000000	      0.50000000	      0.00000000	      0.25000000	     90.07251362	     -3.63084045	      1.50141363	    105.91700069	      1.84860040	     10.13368373	     -3.20822894	      0.00000000	      0.00000000	     42.80684499	    -15.85712141	    -13.81520859	     53.37361249	      0.93154527	     -6.77393274	     11.04271661	      0.00000000	      0.00000000	    -61.78835547	      8.22577178	      9.41695874	     89.77691823	    -15.71866902	     36.23285916	     54.98014767	     24.67845915	      0.00000000	      0.00000000	     89.13804440	    -14.56083873	     41.38122633	     32.70130201	     25.32987630	      0.00000000	      0.00000000
